<svg width="36" height="36" xmlns="http://www.w3.org/2000/svg">
 <g>
  <title>Layer 1</title>
  <path fill="black" d="m13.262857,20.516777l-10.699578,-5.868245v-10.479676c0.05958,-1.461391 -1.129675,-2.65065 -2.591062,-2.65065s-2.650658,1.189258 -2.650658,2.65065v10.524849l-10.595528,6.054085c-0.775757,0.443542 -1.099136,1.396009 -0.752792,2.219479c0.348114,0.823469 1.256409,1.259939 2.113464,1.012548l9.234856,-2.636515v7.865362l-2.871544,2.297226c-0.683861,0.547806 -0.862335,1.512642 -0.422333,2.268959s1.371277,1.074394 2.182365,0.751022l3.762169,-1.505577l3.762154,1.505577c0.213822,0.084816 0.436478,0.125458 0.655594,0.125458c0.613174,0 1.203392,-0.319843 1.526772,-0.878246c0.44001,-0.756317 0.259766,-1.722923 -0.422333,-2.268957l-2.871544,-2.29723v-7.865362l9.23487,2.638283c0.160797,0.045944 0.32515,0.068916 0.484184,0.068916c0.696235,0 1.346526,-0.411736 1.629266,-1.081465c0.34635,-0.823469 0.024734,-1.775936 -0.752787,-2.219479zm-13.246176,-16.137158c-0.487724,0 -0.883552,-0.395831 -0.883552,-0.88355s0.395828,-0.88355 0.883552,-0.88355s0.883553,0.39583 0.883553,0.88355s-0.395844,0.88355 -0.883553,0.88355z"/>
 </g>
</svg>