<?xml version="1.0" encoding="UTF-8" standalone="yes"?>
<!-- Created with sK1/UniConvertor (http://sk1project.org/) -->
<svg xmlns="http://www.w3.org/2000/svg" xmlns:xlink="http://www.w3.org/1999/xlink"
  width="64pt" height="64pt" viewBox="0 0 64 64"
  fill-rule="evenodd">
<g>
<g>
<path style="stroke:none; fill:#000000" d="M 22.8 1.8C 22.1 2.9 19.8 4.2 17.7 4.9C 15.7 5.6 13.5 7 13 8C 12.4 9.09999 12 19 12 31.1C 12 49.9 12.2 52.6 13.8 54.3C 15.4 56.2 15.4 56.3 13.2 57.7C 12 58.6 11 60.3 11 61.6C 11 65.1 14.5 64.7 19.6 60.5C 23.7 57.1 24.2 57 32 57C 39.8 57 40.3 57.1 44.4 60.5C 49.5 64.7 53 65.1 53 61.6C 53 60.3 52 58.6 50.8 57.7C 48.6 56.3 48.6 56.2 50.3 54.3C 51.8 52.6 52 49.9 52 31.1C 52 19 51.6 9.1 51 8C 50.5 7 48.3 5.6 46.3 4.9C 44.2 4.2 41.9 2.9 41.2 1.8C 39.5 -0.599998 36.3 -0.5 35 2C 34.4 3.1 33.1 4 32 4C 30.9 4 29.6 3.1 29 2C 27.7 -0.5 24.5 -0.600006 22.8 1.8zM 38.3 8.7C 39.9 10.2 36.5 12 32 12C 27.5 12 24.1 10.2 25.7 8.7C 26.5 7.8 37.5 7.8 38.3 8.7zM 44.8 15.9C 45.7 16.4 46 18.5 45.8 22.6L 45.5 28.5L 32 28.5L 18.5 28.5L 18.2 22.6C 18 18.5 18.3 16.4 19.2 15.9C 20.9 14.8 43.1 14.8 44.8 15.9zM 23.5 48C 23.5 49.8 22.9 50.6 21.2 50.8C 18.8 51.2 17.4 49 18.4 46.4C 18.7 45.5 19.9 45 21.2 45.2C 22.9 45.4 23.5 46.2 23.5 48zM 45.5 48C 45.5 49.8 44.9 50.6 43.2 50.8C 40.8 51.2 39.4 49 40.4 46.4C 40.7 45.5 41.9 45 43.2 45.2C 44.9 45.4 45.5 46.2 45.5 48z"/>
</g>
</g>
</svg>